REM DIRINDEX 1\2,1\3\7,1\3\8,1\4\9,1\4\10,1\4\11,1\5\12,1\5\13,1\5\14,1\6\15,1\6\16,1\6\17
REM DIRNAME "folder01","folder02","folder03","folder04","folder05","folder06","folder07","folder08","folder09","folder10","folder11","folder12","folder13","folder14","folder15","folder16","folder17"
TITLE ""
FILE "2Q_t_0171-0187.mp3" MP3
  TRACK 01 AUDIO
    TITLE "7:cjc174_2077"
    INDEX 01 00:00:00
  TRACK 02 AUDIO
    TITLE "0:"
    INDEX 01 00:01:14
  TRACK 03 AUDIO
    TITLE "8:cjc174_2078"
    INDEX 01 00:01:61
  TRACK 04 AUDIO
    TITLE "0:"
    INDEX 01 00:03:03
  TRACK 05 AUDIO
    TITLE "7:cjc174_2079"
    INDEX 01 00:03:46
  TRACK 06 AUDIO
    TITLE "0:"
    INDEX 01 00:05:06
  TRACK 07 AUDIO
    TITLE "8:cjc174_2080"
    INDEX 01 00:05:58
  TRACK 08 AUDIO
    TITLE "0:"
    INDEX 01 00:08:55
  TRACK 09 AUDIO
    TITLE "7:cjc174_2081"
    INDEX 01 00:09:25
  TRACK 10 AUDIO
    TITLE "0:"
    INDEX 01 00:10:40
  TRACK 11 AUDIO
    TITLE "8:cjc174_2082"
    INDEX 01 00:11:10
  TRACK 12 AUDIO
    TITLE "0:"
    INDEX 01 00:15:31
  TRACK 13 AUDIO
    TITLE "7:cjc174_2083"
    INDEX 01 00:16:01
  TRACK 14 AUDIO
    TITLE "0:"
    INDEX 01 00:17:34
  TRACK 15 AUDIO
    TITLE "8:cjc174_2084"
    INDEX 01 00:18:06
  TRACK 16 AUDIO
    TITLE "0:"
    INDEX 01 00:21:59
  TRACK 17 AUDIO
    TITLE "7:cjc174_2085"
    INDEX 01 00:22:28
  TRACK 18 AUDIO
    TITLE "0:"
    INDEX 01 00:23:49
  TRACK 19 AUDIO
    TITLE "8:cjc174_2086"
    INDEX 01 00:24:19
  TRACK 20 AUDIO
    TITLE "0:"
    INDEX 01 00:25:38
  TRACK 21 AUDIO
    TITLE "7:cjc174_2087"
    INDEX 01 00:26:06
  TRACK 22 AUDIO
    TITLE "0:"
    INDEX 01 00:27:21
  TRACK 23 AUDIO
    TITLE "8:cjc174_2088"
    INDEX 01 00:27:74
  TRACK 24 AUDIO
    TITLE "0:"
    INDEX 01 00:31:28
  TRACK 25 AUDIO
    TITLE "7:cjc174_2089"
    INDEX 01 00:32:01
  TRACK 26 AUDIO
    TITLE "0:"
    INDEX 01 00:33:18
  TRACK 27 AUDIO
    TITLE "8:cjc174_2090"
    INDEX 01 00:33:65
  TRACK 28 AUDIO
    TITLE "0:"
    INDEX 01 00:35:73
  TRACK 29 AUDIO
    TITLE "7:cjc174_2091"
    INDEX 01 00:36:43
  TRACK 30 AUDIO
    TITLE "0:"
    INDEX 01 00:37:70
  TRACK 31 AUDIO
    TITLE "8:cjc174_2092"
    INDEX 01 00:38:40
  TRACK 32 AUDIO
    TITLE "0:"
    INDEX 01 00:40:69
  TRACK 33 AUDIO
    TITLE "7:cjc174_2093"
    INDEX 01 00:41:39
  TRACK 34 AUDIO
    TITLE "0:"
    INDEX 01 00:42:52
  TRACK 35 AUDIO
    TITLE "8:cjc174_2094"
    INDEX 01 00:43:22
  TRACK 36 AUDIO
    TITLE "0:"
    INDEX 01 00:45:38
  TRACK 37 AUDIO
    TITLE "7:cjc174_2095"
    INDEX 01 00:46:10
  TRACK 38 AUDIO
    TITLE "0:"
    INDEX 01 00:47:06
  TRACK 39 AUDIO
    TITLE "8:cjc174_2096"
    INDEX 01 00:47:55
  TRACK 40 AUDIO
    TITLE "0:"
    INDEX 01 00:51:27
  TRACK 41 AUDIO
    TITLE "7:cjc174_2097"
    INDEX 01 00:51:74
  TRACK 42 AUDIO
    TITLE "0:"
    INDEX 01 00:53:01
  TRACK 43 AUDIO
    TITLE "8:cjc174_2098"
    INDEX 01 00:53:54
  TRACK 44 AUDIO
    TITLE "0:"
    INDEX 01 00:57:63
  TRACK 45 AUDIO
    TITLE "2:cjc174_2099"
    INDEX 01 00:58:33
  TRACK 46 AUDIO
    TITLE "0:"
    INDEX 01 00:59:54
  TRACK 47 AUDIO
    TITLE "7:cjc174_2100"
    INDEX 01 01:00:24
  TRACK 48 AUDIO
    TITLE "0:"
    INDEX 01 01:01:33
  TRACK 49 AUDIO
    TITLE "8:cjc174_2101"
    INDEX 01 01:02:04
  TRACK 50 AUDIO
    TITLE "0:"
    INDEX 01 01:04:65
  TRACK 51 AUDIO
    TITLE "7:cjc174_2102"
    INDEX 01 01:05:35
  TRACK 52 AUDIO
    TITLE "0:"
    INDEX 01 01:06:44
  TRACK 53 AUDIO
    TITLE "8:cjc174_2103"
    INDEX 01 01:07:16
  TRACK 54 AUDIO
    TITLE "0:"
    INDEX 01 01:08:39
  TRACK 55 AUDIO
    TITLE "7:cjc174_2104"
    INDEX 01 01:09:10
  TRACK 56 AUDIO
    TITLE "0:"
    INDEX 01 01:10:32
  TRACK 57 AUDIO
    TITLE "8:cjc174_2105"
    INDEX 01 01:11:08
  TRACK 58 AUDIO
    TITLE "0:"
    INDEX 01 01:15:08
  TRACK 59 AUDIO
    TITLE "7:cjc174_2106"
    INDEX 01 01:15:51
  TRACK 60 AUDIO
    TITLE "0:"
    INDEX 01 01:16:57
  TRACK 61 AUDIO
    TITLE "8:cjc174_2107"
    INDEX 01 01:17:29
  TRACK 62 AUDIO
    TITLE "0:"
    INDEX 01 01:19:49
  TRACK 63 AUDIO
    TITLE "7:cjc174_2108"
    INDEX 01 01:20:17
  TRACK 64 AUDIO
    TITLE "0:"
    INDEX 01 01:21:48
  TRACK 65 AUDIO
    TITLE "8:cjc174_2109"
    INDEX 01 01:22:26
  TRACK 66 AUDIO
    TITLE "0:"
    INDEX 01 01:23:57
  TRACK 67 AUDIO
    TITLE "7:cjc174_2110"
    INDEX 01 01:24:27
  TRACK 68 AUDIO
    TITLE "0:"
    INDEX 01 01:25:38
  TRACK 69 AUDIO
    TITLE "8:cjc174_2111"
    INDEX 01 01:26:14
  TRACK 70 AUDIO
    TITLE "0:"
    INDEX 01 01:27:51
